# xmcd CD database file
#
# Track frame offsets:
#	150
#	25681
#	45757
#	72650
#	96937
#	122607
#	144961
#	169174
#	198126
#	226448
#	242640
#	269386
#
# Disc length: 3907 seconds
#
# Revision: 0
# Processed by: cddbd v1.5.2PL0 Copyright (c) Steve Scherf et al.
# Submitted via: CDex 2.09
#
DISCID=9b0f410c
DTITLE=Jean-Philippe Bordier Trio - Morning Glory
DYEAR=2014
DGENRE=Jazz
TTITLE0=Morning Glory
TTITLE1=Valse for Dume
TTITLE2=Round Trip
TTITLE3=Mr Hap
TTITLE4=Goodbye
TTITLE5=Mi-nou
TTITLE6=Gwada Bop
TTITLE7=Spanish Dream
TTITLE8=Little Dukie
TTITLE9=Lele
TTITLE10=Koulou
TTITLE11=Loreto Di Casinca
EXTD=YEAR: 2014
EXTT0=
EXTT1=
EXTT2=
EXTT3=
EXTT4=
EXTT5=
EXTT6=
EXTT7=
EXTT8=
EXTT9=
EXTT10=
EXTT11=
PLAYORDER=
